<svg id="Calque_1" data-name="Calque 1" xmlns="http://www.w3.org/2000/svg" xmlns:xlink="http://www.w3.org/1999/xlink" viewBox="0 0 886.02 724.03"><defs><style>.cls-1{fill:none;}.cls-2,.cls-8{fill:#4d75f2;}.cls-2{opacity:0.18;isolation:isolate;}.cls-3{fill:#1342b6;}.cls-4{fill:url(#Dégradé_sans_nom_5);}.cls-5{fill:url(#Dégradé_sans_nom_5-2);}.cls-6{fill:url(#Dégradé_sans_nom_5-3);}.cls-7{fill:url(#Dégradé_sans_nom_5-4);}.cls-9{opacity:0.75;fill:url(#Dégradé_sans_nom_5-5);}.cls-10{fill:url(#Dégradé_sans_nom_5-6);}.cls-11{fill:#fff;}.cls-12{fill:#dfe6fd;}.cls-13{fill:#ffaf18;}.cls-14{fill:url(#Dégradé_sans_nom_5-7);}.cls-15{fill:url(#Dégradé_sans_nom_5-8);}.cls-16{fill:url(#Dégradé_sans_nom_13);}.cls-17{fill:url(#Dégradé_sans_nom_13-2);}.cls-18{fill:url(#Dégradé_sans_nom_13-3);}.cls-19{fill:url(#Dégradé_sans_nom_13-4);}.cls-20{fill:#3f3d56;}.cls-21{fill:url(#Dégradé_sans_nom_16);}.cls-22{fill:url(#Dégradé_sans_nom_16-2);}.cls-23{fill:url(#Dégradé_sans_nom_5-9);}.cls-24{fill:url(#Dégradé_sans_nom_16-3);}.cls-25{fill:url(#Dégradé_sans_nom_16-4);}.cls-26{fill:url(#Dégradé_sans_nom_5-10);}.cls-27{fill:url(#Dégradé_sans_nom_16-5);}.cls-28{fill:url(#Dégradé_sans_nom_5-11);}.cls-29{fill:url(#Dégradé_sans_nom_16-6);}.cls-30{fill:url(#Dégradé_sans_nom_5-12);}.cls-31{fill:url(#Dégradé_sans_nom_16-7);}.cls-32{fill:url(#Dégradé_sans_nom_5-13);}.cls-33{fill:url(#Dégradé_sans_nom_16-8);}.cls-34{fill:url(#Dégradé_sans_nom_5-14);}.cls-35{fill:url(#Dégradé_sans_nom_16-9);}.cls-36{fill:url(#Dégradé_sans_nom_16-10);}.cls-37{fill:url(#Dégradé_sans_nom_16-11);}.cls-38{fill:url(#Dégradé_sans_nom_16-12);}.cls-39{fill:url(#Dégradé_sans_nom_13-5);}.cls-40{fill:url(#Dégradé_sans_nom_13-6);}.cls-41{fill:url(#Dégradé_sans_nom_16-13);}.cls-42{fill:url(#Dégradé_sans_nom_22);}.cls-43{opacity:0.5;fill:url(#Dégradé_sans_nom_22-2);}.cls-44{fill:url(#Dégradé_sans_nom_19);}.cls-45{fill:url(#Dégradé_sans_nom_21);}.cls-46{fill:url(#Dégradé_sans_nom_21-2);}.cls-47{fill:url(#Dégradé_sans_nom_21-3);}.cls-48{fill:url(#Dégradé_sans_nom_21-4);}.cls-49{fill:url(#Dégradé_sans_nom_22-3);}.cls-50{fill:url(#Dégradé_sans_nom_22-4);}.cls-51{fill:url(#Dégradé_sans_nom_21-5);}.cls-52{fill:url(#Dégradé_sans_nom_22-5);}.cls-53{fill:url(#Dégradé_sans_nom_21-6);}.cls-54{fill:url(#Dégradé_sans_nom_22-6);}.cls-55{fill:#fff0d3;}</style><linearGradient id="Dégradé_sans_nom_5" x1="607.14" y1="1399.68" x2="399.79" y2="1009.52" gradientTransform="matrix(1, 0, 0, -1, 202.52, 1908.98)" gradientUnits="userSpaceOnUse"><stop offset="0" stop-opacity="0"/><stop offset="0.91" stop-opacity="0.8"/><stop offset="1"/></linearGradient><linearGradient id="Dégradé_sans_nom_5-2" x1="632.5" y1="1386.2" x2="425.15" y2="996.04" xlink:href="#Dégradé_sans_nom_5"/><linearGradient id="Dégradé_sans_nom_5-3" x1="616.99" y1="1394.44" x2="409.64" y2="1004.28" xlink:href="#Dégradé_sans_nom_5"/><linearGradient id="Dégradé_sans_nom_5-4" x1="615.36" y1="1395.31" x2="408.01" y2="1005.15" xlink:href="#Dégradé_sans_nom_5"/><linearGradient id="Dégradé_sans_nom_5-5" x1="323.66" y1="1820.47" x2="300.57" y2="1503.43" xlink:href="#Dégradé_sans_nom_5"/><linearGradient id="Dégradé_sans_nom_5-6" x1="222.37" y1="1320.44" x2="-470.17" y2="1318.4" gradientTransform="matrix(1, 0, 0, -1, 150.02, 1734.96)" xlink:href="#Dégradé_sans_nom_5"/><linearGradient id="Dégradé_sans_nom_5-7" x1="681.2" y1="1741.58" x2="128.05" y2="1655.53" gradientTransform="matrix(1, 0, 0, -1, 202.52, 2078.98)" xlink:href="#Dégradé_sans_nom_5"/><linearGradient id="Dégradé_sans_nom_5-8" x1="730.28" y1="1426.06" x2="177.13" y2="1340.01" gradientTransform="matrix(1, 0, 0, -1, 202.52, 2078.98)" xlink:href="#Dégradé_sans_nom_5"/><linearGradient id="Dégradé_sans_nom_13" x1="692.09" y1="1425.41" x2="579.51" y2="1469.31" gradientTransform="matrix(1, 0, 0, -1, 202.52, 1908.98)" gradientUnits="userSpaceOnUse"><stop offset="0" stop-color="#ecc4d7"/><stop offset="0.16" stop-color="#edcbd5"/><stop offset="0.42" stop-color="#efd4d1"/><stop offset="0.7" stop-color="#f2eac9"/></linearGradient><linearGradient id="Dégradé_sans_nom_13-2" x1="703.42" y1="1454.47" x2="590.85" y2="1498.37" xlink:href="#Dégradé_sans_nom_13"/><linearGradient id="Dégradé_sans_nom_13-3" x1="686.9" y1="1412.09" x2="574.32" y2="1455.99" xlink:href="#Dégradé_sans_nom_13"/><linearGradient id="Dégradé_sans_nom_13-4" x1="688.3" y1="1415.69" x2="575.72" y2="1459.59" xlink:href="#Dégradé_sans_nom_13"/><linearGradient id="Dégradé_sans_nom_16" x1="558.2" y1="1419.53" x2="578.73" y2="1419.53" gradientTransform="matrix(1, 0, 0, -1, 202.52, 1908.98)" gradientUnits="userSpaceOnUse"><stop offset="0" stop-color="#ecc4d7"/><stop offset="0.42" stop-color="#efd4d1"/><stop offset="1" stop-color="#f2eac9"/></linearGradient><linearGradient id="Dégradé_sans_nom_16-2" x1="558.2" y1="1429.85" x2="578.73" y2="1429.85" xlink:href="#Dégradé_sans_nom_16"/><linearGradient id="Dégradé_sans_nom_5-9" x1="576.93" y1="1415.73" x2="369.58" y2="1025.57" xlink:href="#Dégradé_sans_nom_5"/><linearGradient id="Dégradé_sans_nom_16-3" x1="558.2" y1="1403.21" x2="578.73" y2="1403.21" xlink:href="#Dégradé_sans_nom_16"/><linearGradient id="Dégradé_sans_nom_16-4" x1="558.2" y1="1429.84" x2="578.73" y2="1429.84" xlink:href="#Dégradé_sans_nom_16"/><linearGradient id="Dégradé_sans_nom_5-10" x1="702.28" y1="1606.07" x2="149.13" y2="1520.02" gradientTransform="matrix(1, 0, 0, -1, 202.52, 2078.98)" xlink:href="#Dégradé_sans_nom_5"/><linearGradient id="Dégradé_sans_nom_16-5" x1="558.2" y1="1415.09" x2="578.73" y2="1415.09" xlink:href="#Dégradé_sans_nom_16"/><linearGradient id="Dégradé_sans_nom_5-11" x1="700.39" y1="1618.23" x2="147.24" y2="1532.18" gradientTransform="matrix(1, 0, 0, -1, 202.52, 2078.98)" xlink:href="#Dégradé_sans_nom_5"/><linearGradient id="Dégradé_sans_nom_16-6" x1="558.2" y1="1427.26" x2="578.73" y2="1427.26" xlink:href="#Dégradé_sans_nom_16"/><linearGradient id="Dégradé_sans_nom_5-12" x1="703.64" y1="1597.29" x2="150.5" y2="1511.23" gradientTransform="matrix(1, 0, 0, -1, 202.52, 2078.98)" xlink:href="#Dégradé_sans_nom_5"/><linearGradient id="Dégradé_sans_nom_16-7" x1="558.2" y1="1406.19" x2="578.73" y2="1406.19" xlink:href="#Dégradé_sans_nom_16"/><linearGradient id="Dégradé_sans_nom_5-13" x1="600.75" y1="1403.07" x2="393.4" y2="1012.91" xlink:href="#Dégradé_sans_nom_5"/><linearGradient id="Dégradé_sans_nom_16-8" x1="565.91" y1="1348.34" x2="583.05" y2="1348.34" xlink:href="#Dégradé_sans_nom_16"/><linearGradient id="Dégradé_sans_nom_5-14" x1="712.39" y1="1541.04" x2="159.25" y2="1454.99" gradientTransform="matrix(1, 0, 0, -1, 202.52, 2078.98)" xlink:href="#Dégradé_sans_nom_5"/><linearGradient id="Dégradé_sans_nom_16-9" x1="565.91" y1="1348.92" x2="583.05" y2="1348.92" xlink:href="#Dégradé_sans_nom_16"/><linearGradient id="Dégradé_sans_nom_16-10" x1="565.91" y1="1322.87" x2="583.05" y2="1322.87" xlink:href="#Dégradé_sans_nom_16"/><linearGradient id="Dégradé_sans_nom_16-11" x1="619.64" y1="1437.69" x2="572.91" y2="1382.82" xlink:href="#Dégradé_sans_nom_16"/><linearGradient id="Dégradé_sans_nom_16-12" x1="625.36" y1="1432.82" x2="578.63" y2="1377.94" xlink:href="#Dégradé_sans_nom_16"/><linearGradient id="Dégradé_sans_nom_13-5" x1="692.56" y1="1426.63" x2="579.99" y2="1470.53" xlink:href="#Dégradé_sans_nom_13"/><linearGradient id="Dégradé_sans_nom_13-6" x1="687.09" y1="1412.59" x2="574.51" y2="1456.49" xlink:href="#Dégradé_sans_nom_13"/><linearGradient id="Dégradé_sans_nom_16-13" x1="831.84" y1="465.41" x2="796.78" y2="424.24" gradientTransform="matrix(1, 0, 0, 1, 0, 0)" xlink:href="#Dégradé_sans_nom_16"/><linearGradient id="Dégradé_sans_nom_22" x1="20.5" y1="163.24" x2="28.01" y2="98.36" gradientTransform="translate(202.52 678.98)" gradientUnits="userSpaceOnUse"><stop offset="0.1" stop-opacity="0.77"/><stop offset="0.99" stop-opacity="0"/></linearGradient><linearGradient id="Dégradé_sans_nom_22-2" x1="48.67" y1="63.91" x2="10.08" y2="60.15" xlink:href="#Dégradé_sans_nom_22"/><linearGradient id="Dégradé_sans_nom_19" x1="-6.88" y1="65.09" x2="-8.22" y2="151.67" gradientTransform="translate(202.52 678.98)" gradientUnits="userSpaceOnUse"><stop offset="0.36" stop-opacity="0.77"/><stop offset="0.99" stop-opacity="0"/></linearGradient><linearGradient id="Dégradé_sans_nom_21" x1="-18.72" y1="138.49" x2="-17.35" y2="184.47" gradientTransform="translate(150.02 504.96)" gradientUnits="userSpaceOnUse"><stop offset="0.01"/><stop offset="0.1" stop-opacity="0.77"/><stop offset="0.99" stop-opacity="0"/></linearGradient><linearGradient id="Dégradé_sans_nom_21-2" x1="-4.4" y1="138.06" x2="-3.03" y2="184.05" xlink:href="#Dégradé_sans_nom_21"/><linearGradient id="Dégradé_sans_nom_21-3" x1="55.46" y1="151.55" x2="25.74" y2="207.2" xlink:href="#Dégradé_sans_nom_21"/><linearGradient id="Dégradé_sans_nom_21-4" x1="42.67" y1="144.72" x2="12.96" y2="200.37" xlink:href="#Dégradé_sans_nom_21"/><linearGradient id="Dégradé_sans_nom_22-3" x1="61.86" y1="109.45" x2="44.46" y2="169.55" xlink:href="#Dégradé_sans_nom_22"/><linearGradient id="Dégradé_sans_nom_22-4" x1="44.26" y1="104.35" x2="26.86" y2="164.46" xlink:href="#Dégradé_sans_nom_22"/><linearGradient id="Dégradé_sans_nom_21-5" x1="48.63" y1="147.9" x2="18.92" y2="203.55" xlink:href="#Dégradé_sans_nom_21"/><linearGradient id="Dégradé_sans_nom_22-5" x1="58.42" y1="108.45" x2="41.02" y2="168.55" gradientTransform="translate(150.02 504.96)" xlink:href="#Dégradé_sans_nom_22"/><linearGradient id="Dégradé_sans_nom_21-6" x1="35.94" y1="141.13" x2="6.23" y2="196.78" xlink:href="#Dégradé_sans_nom_21"/><linearGradient id="Dégradé_sans_nom_22-6" x1="43.37" y1="104.1" x2="25.97" y2="164.2" gradientTransform="translate(150.02 504.96)" xlink:href="#Dégradé_sans_nom_22"/></defs><title>calendar</title><path class="cls-1" d="M761.43,759.87V876.71h0V759.86Z" transform="translate(-52.5 -174.02)"/><path class="cls-2" d="M761.43,759.87h0v-90h0Z" transform="translate(-52.5 -174.02)"/><path class="cls-2" d="M892.67,439.81c-5.75,6.63-12.9,11.83-19.29,17.9l-.06-.59c-6,5.57-12.38,11-14.84,17.8l.14.08s30.63,19.95,29.59,53.42a20.25,20.25,0,0,1-1.16,8.49C873.94,575,846.49,662.19,820.43,662.19c-12.47,0-22.21-8.12-29.55-18.4-6.36,5.77-12.47,11.22-18.13,16.22v89.21a316.89,316.89,0,0,1,69.6-47.32c17.49-8.76,36-16,51.23-28.34,40-32.38,46.87-90.33,44.54-141.71-2-43-10.4-89.8-37.25-122.2a38.75,38.75,0,0,1,1.16,6.28C902.77,424.69,898.42,433.17,892.67,439.81Z" transform="translate(-52.5 -174.02)"/><path class="cls-2" d="M244.9,328.7c-52.35,28-106.3,57.25-142.79,104.09C80.2,461,65.6,494.46,57.91,529.34,44.74,588.87,54.49,657.89,99.8,698.83c15.76,14.31,35.05,24.41,54.93,32.17A294.07,294.07,0,0,0,186,741.22c-2.66-5.38-4.17-10.92-3-14.52,5-1.44,13.46,2.12,20.14,6.82,0-.43,0-.86,0-1.28.39-9.35,5.1-23.18,11.31-26.18,6,3.45,9.85,17.58,9.5,26.94v.69c6.88-4.71,15.77-8.33,20.82-6.69,1.62,5.71-3.33,16-9,23q14.4,1.27,28.92,1.13V317.79Q254.83,323.39,244.9,328.7Z" transform="translate(-52.5 -174.02)"/><path class="cls-2" d="M439.07,217.13c-11.75,5.7-23.38,11.78-34.9,18.11h34.9Z" transform="translate(-52.5 -174.02)"/><path class="cls-2" d="M453.29,235.24H507V212c0-2.51,3.18-4.55,7.11-4.55s7.1,2,7.1,4.55v23.26h53.71V212c0-2.51,3.19-4.55,7.12-4.55s7.11,2,7.11,4.55v23.26h53.71V212c0-2.51,3.19-4.55,7.1-4.55s7.12,2,7.12,4.55v23.26h52.26V212c0-2.51,3.19-4.55,7.11-4.55s7.1,2,7.1,4.55v23.26h37.87v234h0v-234h5.48C718,188,642.77,168.08,573.67,175.55c-42.53,4.6-82.39,17.64-120.71,35a3.18,3.18,0,0,1,.33,1.38Z" transform="translate(-52.5 -174.02)"/><path class="cls-2" d="M791.72,451.58c10.19-1.15,25.16,3.71,38.35,9.3,1.73-1,3.34-2,4.11-3.34l-.38-.29.07,0-.07-.06c-9.85-7.43-10.92-23.18-8.88-33.7,1.62-8.37,4.92-16.49,8.72-24.29a6.46,6.46,0,0,1-6.25,1.6c-3.08-1.1-4.47-5.59-2.24-8A13.49,13.49,0,0,1,821,387a2.85,2.85,0,0,1,0-2.42c.82-1.31,3.23-1,3.9-2.43a12.3,12.3,0,0,1-4.35-5.3,1,1,0,0,1-.09-.82,1,1,0,0,1,.78-.44l3.73-.84a8.13,8.13,0,0,1-3.42-7.52c6,.91,11.73-2.43,17.1-5.27,1.13-.59,2.31-1.17,3.52-1.69-20.22-24.5-29.05-58.1-45.1-86.36a171,171,0,0,0-24.35-32.81v219C779.17,455.59,785.74,452.26,791.72,451.58Z" transform="translate(-52.5 -174.02)"/><path class="cls-3" d="M772.75,496.71v.46c.26-.34.52-.69.77-1C773.28,496.33,773,496.52,772.75,496.71Z" transform="translate(-52.5 -174.02)"/><path class="cls-3" d="M761.45,477.6v-8.39h0v8.39Z" transform="translate(-52.5 -174.02)"/><path class="cls-3" d="M761.43,530.2l0-.07V480.67h0Z" transform="translate(-52.5 -174.02)"/><path class="cls-3" d="M774.08,477.2c-.2.74-.59,1.58-.11,2.18a3.27,3.27,0,0,0,.9.57,3.89,3.89,0,0,1,1.78,3.64,12,12,0,0,1-1.21,4,2.09,2.09,0,0,1,2.67,1,4.31,4.31,0,0,1,.19,3.08c-.25,1-.66,2-.82,3.07a2.5,2.5,0,0,1,1.09-.38,2.43,2.43,0,0,1,2.62,2.21,3.53,3.53,0,0,1-.6,1.83,12.25,12.25,0,0,1-2.31,2.51l-5.36,4.86a20.68,20.68,0,0,1,1.25,2.07c9.59,16.48,15.65,34.66,21.72,52.7q4.5,13.33,9,26.79A64.52,64.52,0,0,0,822.63,573c4.6-5.11,8.72-10.62,13-16,2.33-3,6.42-10.31,10.3-11.29,4.2-9,9.16-17.15,15.37-22.81l.64-.57c11.48-10.14,25.19-5.61,26.32,6.12,1-33.47-29.59-53.42-29.59-53.42l-.14-.08a17.61,17.61,0,0,0-.72,2.58c-.16.76-19.84,10.24-30,7h0c-3.66-1.15-6.09-4-5.91-9.43a31.37,31.37,0,0,1,2-9.2c.77-2.19,3.68-3.56,6.3-5-13.19-5.59-28.16-10.45-38.35-9.3-6,.68-12.55,4-19,8.51v13A3.52,3.52,0,0,1,774.08,477.2Z" transform="translate(-52.5 -174.02)"/><path class="cls-3" d="M761.43,669.92h0V530.13l0,.07Z" transform="translate(-52.5 -174.02)"/><path class="cls-4" d="M761.43,669.92h0V530.13l0,.07Z" transform="translate(-52.5 -174.02)"/><path class="cls-3" d="M772.75,660c5.66-5,11.77-10.45,18.13-16.22C778.25,626.08,772.75,602,772.75,602Z" transform="translate(-52.5 -174.02)"/><path class="cls-5" d="M772.75,660c5.66-5,11.77-10.45,18.13-16.22C778.25,626.08,772.75,602,772.75,602Z" transform="translate(-52.5 -174.02)"/><path class="cls-3" d="M783.29,568.15c.29,2.58,1.89,4.75,2.24,7.1a3.62,3.62,0,0,1,0,.81l2.87-5.81s22.18,48.66,33.35,35.49c8-9.4,13.62-37.53,24.1-60.06-3.88,1-8,8.3-10.3,11.29-4.23,5.41-8.35,10.92-13,16a64.52,64.52,0,0,1-17.75,14.37q-4.49-13.46-9-26.79c-6.07-18-12.13-36.22-21.72-52.7a20.68,20.68,0,0,0-1.25-2.07l-.14.13,0,0v19.12a63.93,63.93,0,0,1,10.39,34.57A75.18,75.18,0,0,0,783.29,568.15Z" transform="translate(-52.5 -174.02)"/><path class="cls-6" d="M783.29,568.15c.29,2.58,1.89,4.75,2.24,7.1a3.62,3.62,0,0,1,0,.81l2.87-5.81s22.18,48.66,33.35,35.49c8-9.4,13.62-37.53,24.1-60.06-3.88,1-8,8.3-10.3,11.29-4.23,5.41-8.35,10.92-13,16a64.52,64.52,0,0,1-17.75,14.37q-4.49-13.46-9-26.79c-6.07-18-12.13-36.22-21.72-52.7a20.68,20.68,0,0,0-1.25-2.07l-.14.13,0,0v19.12a63.93,63.93,0,0,1,10.39,34.57A75.18,75.18,0,0,0,783.29,568.15Z" transform="translate(-52.5 -174.02)"/><path class="cls-3" d="M775.53,596.2a6.92,6.92,0,0,1-2.78-1V602l2.88-5.83Z" transform="translate(-52.5 -174.02)"/><path class="cls-7" d="M775.53,596.2a6.92,6.92,0,0,1-2.78-1V602l2.88-5.83Z" transform="translate(-52.5 -174.02)"/><path class="cls-8" d="M335.34,301.45H761.43V235.24H723.56V258.5c0,2.51-3.18,4.55-7.1,4.55s-7.11-2-7.11-4.55V235.24H657.09V258.5c0,2.51-3.19,4.55-7.12,4.55s-7.1-2-7.1-4.55V235.24H589.16V258.5c0,2.51-3.19,4.55-7.11,4.55s-7.12-2-7.12-4.55V235.24H521.22V258.5c0,2.51-3.19,4.55-7.1,4.55S507,261,507,258.5V235.24H453.29V258.5c0,2.51-3.18,4.55-7.11,4.55s-7.11-2-7.11-4.55V235.24H385.35V258.5c0,2.51-3.18,4.55-7.1,4.55s-7.11-2-7.11-4.55V235.24H317.42V258.5c0,2.51-3.18,4.55-7.11,4.55s-7.11-2-7.11-4.55V235.24H264.73v66.21Z" transform="translate(-52.5 -174.02)"/><path class="cls-9" d="M335.34,301.45H761.43V235.24H723.56V258.5c0,2.51-3.18,4.55-7.1,4.55s-7.11-2-7.11-4.55V235.24H657.09V258.5c0,2.51-3.19,4.55-7.12,4.55s-7.1-2-7.1-4.55V235.24H589.16V258.5c0,2.51-3.19,4.55-7.11,4.55s-7.12-2-7.12-4.55V235.24H521.22V258.5c0,2.51-3.19,4.55-7.1,4.55S507,261,507,258.5V235.24H453.29V258.5c0,2.51-3.18,4.55-7.11,4.55s-7.11-2-7.11-4.55V235.24H385.35V258.5c0,2.51-3.18,4.55-7.1,4.55s-7.11-2-7.11-4.55V235.24H317.42V258.5c0,2.51-3.18,4.55-7.11,4.55s-7.11-2-7.11-4.55V235.24H264.73v66.21Z" transform="translate(-52.5 -174.02)"/><path class="cls-8" d="M761.43,759.87V480.66a2.43,2.43,0,0,1-.71-1.5,3.66,3.66,0,0,1,.71-1.55V301.45H335.34V409h42.91v85.8H335.34v3.77h42.91v85.8H335.34v3.77h42.91v85.8H335.34v3.77h42.91v85.8H335.34v3.77h42.91v85.8H335.34v23.24l426.09.42V759.87ZM653.2,319.4H739v85.8H653.2Zm0,89.57H739v85.8H653.2Zm0,89.57H739v85.8H653.2Zm0,89.57H739v85.8H653.2Zm0,89.57H739v85.8H653.2ZM564.15,319.4H650v85.8h-85.8Zm0,89.57H650v85.8h-85.8Zm0,89.57H650v85.8h-85.8Zm0,89.57H650v85.8h-85.8Zm0,89.57H650v85.8h-85.8ZM473.59,409h85.8v85.8h-85.8Zm0,89.57h85.8v85.8h-85.8Zm0,89.57h85.8v85.8h-85.8Zm0,89.57h85.8v85.8h-85.8ZM383,409h85.8v85.8H383Zm0,89.57h85.8v85.8H383Zm0,89.57h85.8v85.8H383Zm0,89.57h85.8v85.8H383Zm0,175.37v-85.8h85.8v85.8Zm90.58,0v-85.8h85.8v85.8Z" transform="translate(-52.5 -174.02)"/><polygon class="cls-8" points="282.84 679.03 239.94 679.03 239.94 593.23 282.84 593.23 282.84 589.46 239.94 589.46 239.94 503.66 282.84 503.66 282.84 499.89 239.94 499.89 239.94 414.09 282.84 414.09 282.84 410.32 239.94 410.32 239.94 324.52 282.84 324.52 282.84 320.75 239.94 320.75 239.94 234.95 282.84 234.95 282.84 127.43 212.22 127.43 212.22 143.77 212.22 577.06 212.22 636.49 212.22 702.2 282.84 702.27 282.84 679.03"/><polygon class="cls-10" points="282.84 679.03 239.94 679.03 239.94 593.23 282.84 593.23 282.84 589.46 239.94 589.46 239.94 503.66 282.84 503.66 282.84 499.89 239.94 499.89 239.94 414.09 282.84 414.09 282.84 410.32 239.94 410.32 239.94 324.52 282.84 324.52 282.84 320.75 239.94 320.75 239.94 234.95 282.84 234.95 282.84 127.43 212.22 127.43 212.22 143.77 212.22 577.06 212.22 636.49 212.22 702.2 282.84 702.27 282.84 679.03"/><polygon class="cls-11" points="325.74 234.95 282.84 234.95 239.94 234.95 239.94 320.75 282.84 320.75 325.74 320.75 325.74 234.95"/><rect class="cls-11" x="330.51" y="234.95" width="85.8" height="85.8"/><rect class="cls-11" x="421.08" y="234.95" width="85.8" height="85.8"/><path class="cls-11" d="M650,409h-85.8v85.8H650Zm-72.8,19.43a6.83,6.83,0,1,1,6.82-6.84A6.84,6.84,0,0,1,577.15,428.4Zm16.68,0a6.83,6.83,0,1,1,6.81-6.84A6.83,6.83,0,0,1,593.83,428.4Zm16.77,0a6.83,6.83,0,1,1,6.81-6.84A6.84,6.84,0,0,1,610.6,428.4Z" transform="translate(-52.5 -174.02)"/><polygon class="cls-11" points="325.74 324.52 282.84 324.52 239.94 324.52 239.94 410.32 282.84 410.32 325.74 410.32 325.74 324.52"/><rect class="cls-11" x="330.51" y="324.52" width="85.8" height="85.8"/><rect class="cls-11" x="421.08" y="324.52" width="85.8" height="85.8"/><rect class="cls-12" x="511.65" y="324.52" width="85.8" height="85.8"/><path class="cls-11" d="M378.25,588.11h-85.8v85.8h85.8Zm-71.4,20.69a6.82,6.82,0,1,1,6.82-6.82A6.81,6.81,0,0,1,306.85,608.8Z" transform="translate(-52.5 -174.02)"/><rect class="cls-11" x="330.51" y="414.09" width="85.8" height="85.8"/><rect class="cls-11" x="421.08" y="414.09" width="85.8" height="85.8"/><path class="cls-11" d="M650,588.11h-85.8v85.8H650Zm-72.81,20.7A6.83,6.83,0,1,1,584,602h0A6.83,6.83,0,0,1,577.14,608.81Zm16.67,0a6.83,6.83,0,1,1,6.82-6.84h0A6.83,6.83,0,0,1,593.81,608.81Zm16.78,0A6.83,6.83,0,1,1,617.4,602h0A6.82,6.82,0,0,1,610.59,608.81Z" transform="translate(-52.5 -174.02)"/><polygon class="cls-11" points="325.74 503.66 282.84 503.66 239.94 503.66 239.94 589.46 282.84 589.46 325.74 589.46 325.74 503.66"/><rect class="cls-11" x="330.51" y="503.66" width="85.8" height="85.8"/><path class="cls-11" d="M559.39,677.68h-85.8v85.8h85.8Zm-12,22.66-33.67,38.81a4.3,4.3,0,0,1-.81.72,3.81,3.81,0,0,1-5.25-1.14l-12.22-19v0a3.75,3.75,0,0,1,6.34-4L509,726.61a3.58,3.58,0,0,0,.75.85,3.78,3.78,0,0,0,5.31-.5l26.34-31.53a3.8,3.8,0,0,1,2.91-1.36h.28a3.84,3.84,0,0,1,2.48.94A3.77,3.77,0,0,1,547.43,700.34Z" transform="translate(-52.5 -174.02)"/><rect class="cls-11" x="511.65" y="503.66" width="85.8" height="85.8"/><path class="cls-11" d="M378.25,767.25h-85.8v85.8h85.8Zm-14.53,69.08a3.8,3.8,0,0,1-2.73,1.15h-.66a3.84,3.84,0,0,1-2.71-1.12l-15-15a3.84,3.84,0,0,0-5.42,0l-15,15a3.8,3.8,0,0,1-2.7,1.12h-.67a3.83,3.83,0,0,1-2.69-6.56l15.4-15.15a3.81,3.81,0,0,0,0-5.39L316,794.84a3.83,3.83,0,0,1,5.39-5.45l15.76,15.55a3.85,3.85,0,0,0,5.38,0l15.76-15.55a3.84,3.84,0,0,1,5.4,5.45l-15.55,15.54a3.82,3.82,0,0,0,.07,5.39h.05l15.39,15.15A3.81,3.81,0,0,1,363.72,836.33Z" transform="translate(-52.5 -174.02)"/><rect class="cls-11" x="330.51" y="593.23" width="85.8" height="85.8"/><rect class="cls-11" x="421.08" y="593.23" width="85.8" height="85.8"/><rect class="cls-11" x="600.7" y="234.95" width="85.8" height="85.8"/><rect class="cls-11" x="600.7" y="145.38" width="85.8" height="85.8"/><path class="cls-11" d="M650,319.4h-85.8v85.8H650Zm-72.8,19.41A6.83,6.83,0,1,1,584,332,6.82,6.82,0,0,1,577.15,338.81Z" transform="translate(-52.5 -174.02)"/><rect class="cls-11" x="600.7" y="324.52" width="85.8" height="85.8"/><rect class="cls-11" x="600.7" y="414.09" width="85.8" height="85.8"/><rect class="cls-11" x="600.7" y="503.66" width="85.8" height="85.8"/><path class="cls-13" d="M310.31,263.05c3.93,0,7.11-2,7.11-4.55V212c0-2.51-3.18-4.55-7.11-4.55s-7.11,2-7.11,4.55V258.5C303.2,261,306.39,263.05,310.31,263.05Z" transform="translate(-52.5 -174.02)"/><path class="cls-13" d="M371.14,258.5c0,2.51,3.18,4.55,7.11,4.55s7.1-2,7.1-4.55V212c0-2.51-3.18-4.55-7.1-4.55s-7.11,2-7.11,4.55V258.5Z" transform="translate(-52.5 -174.02)"/><path class="cls-13" d="M439.07,258.5c0,2.51,3.18,4.55,7.11,4.55s7.11-2,7.11-4.55V212a3.18,3.18,0,0,0-.33-1.38c-.91-1.83-3.6-3.17-6.78-3.17-3.93,0-7.11,2-7.11,4.55V258.5Z" transform="translate(-52.5 -174.02)"/><path class="cls-13" d="M514.12,207.43c-3.93,0-7.11,2-7.11,4.55V258.5c0,2.51,3.18,4.55,7.11,4.55s7.1-2,7.1-4.55V212C521.22,209.47,518,207.43,514.12,207.43Z" transform="translate(-52.5 -174.02)"/><path class="cls-13" d="M582.05,207.43c-3.93,0-7.12,2-7.12,4.55V258.5c0,2.51,3.19,4.55,7.12,4.55s7.11-2,7.11-4.55V212C589.16,209.47,586,207.43,582.05,207.43Z" transform="translate(-52.5 -174.02)"/><path class="cls-13" d="M650,207.43c-3.91,0-7.1,2-7.1,4.55V258.5c0,2.51,3.19,4.55,7.1,4.55s7.12-2,7.12-4.55V212C657.09,209.47,653.9,207.43,650,207.43Z" transform="translate(-52.5 -174.02)"/><path class="cls-13" d="M716.46,207.43c-3.92,0-7.11,2-7.11,4.55V258.5c0,2.51,3.19,4.55,7.11,4.55s7.1-2,7.1-4.55V212C723.56,209.47,720.38,207.43,716.46,207.43Z" transform="translate(-52.5 -174.02)"/><path class="cls-8" d="M761.45,469.21v8.39a3.55,3.55,0,0,1,.94-.87c2.32-2,4.93-3.92,8.05-4.25a3.61,3.61,0,0,1,1.53.19h0a3.84,3.84,0,0,1,.78.41V235.24h-11.3Z" transform="translate(-52.5 -174.02)"/><path class="cls-14" d="M761.45,469.21v8.39a3.55,3.55,0,0,1,.94-.87c2.32-2,4.93-3.92,8.05-4.25a3.61,3.61,0,0,1,1.53.19h0a3.84,3.84,0,0,1,.78.41V235.24h-11.3Z" transform="translate(-52.5 -174.02)"/><path class="cls-8" d="M772.75,602v-6.77a7,7,0,0,1-2.46-2.55,14.84,14.84,0,0,1-1.74-6.27,32.91,32.91,0,0,1,1.22-12.13c.54-1.89,1.24-3.72,1.66-5.64a37.42,37.42,0,0,0,.53-8l-.18-32.21a5,5,0,0,1,.86-3.51c0,.05.07.11.11.17V506c-1.49,1.3-3.27,2.72-5.23,2.39a1.07,1.07,0,0,1-.67-.31,1.29,1.29,0,0,1-.23-.68,8.7,8.7,0,0,1,2.53-6.07,40.49,40.49,0,0,0,3.6-4.13v-.46a16.68,16.68,0,0,1-5.29,2.62,1.54,1.54,0,0,1-.85,0,1.69,1.69,0,0,1-1.21-2,6.8,6.8,0,0,1,.78-1.92,16.5,16.5,0,0,1,2.93-3.47l3.64-3.53-5.35,2.13c-1.12.44-2.51.85-3.33-.19a2.27,2.27,0,0,1-.11-2.49,21.07,21.07,0,0,1,8-7.88l-6.16,1.21a7.15,7.15,0,0,1-3.12.15,2.38,2.38,0,0,1-1.22-.65v396h11.3V602Z" transform="translate(-52.5 -174.02)"/><path class="cls-15" d="M772.75,602v-6.77a7,7,0,0,1-2.46-2.55,14.84,14.84,0,0,1-1.74-6.27,32.91,32.91,0,0,1,1.22-12.13c.54-1.89,1.24-3.72,1.66-5.64a37.42,37.42,0,0,0,.53-8l-.18-32.21a5,5,0,0,1,.86-3.51c0,.05.07.11.11.17V506c-1.49,1.3-3.27,2.72-5.23,2.39a1.07,1.07,0,0,1-.67-.31,1.29,1.29,0,0,1-.23-.68,8.7,8.7,0,0,1,2.53-6.07,40.49,40.49,0,0,0,3.6-4.13v-.46a16.68,16.68,0,0,1-5.29,2.62,1.54,1.54,0,0,1-.85,0,1.69,1.69,0,0,1-1.21-2,6.8,6.8,0,0,1,.78-1.92,16.5,16.5,0,0,1,2.93-3.47l3.64-3.53-5.35,2.13c-1.12.44-2.51.85-3.33-.19a2.27,2.27,0,0,1-.11-2.49,21.07,21.07,0,0,1,8-7.88l-6.16,1.21a7.15,7.15,0,0,1-3.12.15,2.38,2.38,0,0,1-1.22-.65v396h11.3V602Z" transform="translate(-52.5 -174.02)"/><path class="cls-13" d="M577.13,325.16A6.83,6.83,0,1,0,584,332,6.84,6.84,0,0,0,577.13,325.16Z" transform="translate(-52.5 -174.02)"/><path class="cls-13" d="M577.13,414.74a6.83,6.83,0,1,0,6.84,6.82A6.84,6.84,0,0,0,577.13,414.74Z" transform="translate(-52.5 -174.02)"/><path class="cls-13" d="M593.8,414.74a6.83,6.83,0,1,0,6.84,6.82A6.82,6.82,0,0,0,593.8,414.74Z" transform="translate(-52.5 -174.02)"/><path class="cls-13" d="M610.57,414.74a6.83,6.83,0,1,0,6.84,6.82A6.82,6.82,0,0,0,610.57,414.74Z" transform="translate(-52.5 -174.02)"/><path class="cls-13" d="M577.14,595.15A6.83,6.83,0,1,0,584,602h0A6.83,6.83,0,0,0,577.14,595.15Z" transform="translate(-52.5 -174.02)"/><circle class="cls-13" cx="306.85" cy="601.98" r="6.82" transform="translate(-144.97 -117.09) rotate(-9.22)"/><path class="cls-13" d="M593.81,595.15a6.83,6.83,0,1,0,6.83,6.83h0A6.82,6.82,0,0,0,593.81,595.15Z" transform="translate(-52.5 -174.02)"/><path class="cls-13" d="M610.59,595.15a6.83,6.83,0,1,0,6.82,6.83h0A6.82,6.82,0,0,0,610.59,595.15Z" transform="translate(-52.5 -174.02)"/><path class="cls-2" d="M834.2,457.55h0c-.77,1.34-2.38,2.36-4.11,3.34h0C831.83,459.91,833.43,458.89,834.2,457.55Z" transform="translate(-52.5 -174.02)"/><path class="cls-16" d="M834.2,457.55h0c-.77,1.34-2.38,2.36-4.11,3.34h0C831.83,459.91,833.43,458.89,834.2,457.55Z" transform="translate(-52.5 -174.02)"/><path class="cls-2" d="M850.05,461.37c.34,1.61-.8,3.13-2,4.38l-2.19,2.47c6.89,3.46,11.73,6.21,12.58,6.7,2.46-6.79,8.82-12.23,14.84-17.8q-.51-4.77-1-9.55a16,16,0,0,0,10.48-7.28c1.87-3.16,2.61-7.38.65-10.52s-7-4.19-9.42-1.35a16.59,16.59,0,0,0-2,4.39c-.62,1.49-1.76,3-3.37,3.15a12.09,12.09,0,0,1-1.54-9.07c.53-3.07,1.73-6,2.57-9A40.35,40.35,0,0,0,871,403a14.61,14.61,0,0,1-7-.44,7.82,7.82,0,0,1,.7-3.08c-9.36,4.32-20.24,2.82-30.41,1.22a6.6,6.6,0,0,0,.92-4,6.42,6.42,0,0,1-1.59,2.51c-3.8,7.8-7.1,15.92-8.72,24.29-2,10.52-1,26.27,8.88,33.7l.07.06a18.65,18.65,0,0,0,4.3,1.4C841.33,459.15,849.09,456.7,850.05,461.37Z" transform="translate(-52.5 -174.02)"/><path class="cls-17" d="M850.05,461.37c.34,1.61-.8,3.13-2,4.38l-2.19,2.47c6.89,3.46,11.73,6.21,12.58,6.7,2.46-6.79,8.82-12.23,14.84-17.8q-.51-4.77-1-9.55a16,16,0,0,0,10.48-7.28c1.87-3.16,2.61-7.38.65-10.52s-7-4.19-9.42-1.35a16.59,16.59,0,0,0-2,4.39c-.62,1.49-1.76,3-3.37,3.15a12.09,12.09,0,0,1-1.54-9.07c.53-3.07,1.73-6,2.57-9A40.35,40.35,0,0,0,871,403a14.61,14.61,0,0,1-7-.44,7.82,7.82,0,0,1,.7-3.08c-9.36,4.32-20.24,2.82-30.41,1.22a6.6,6.6,0,0,0,.92-4,6.42,6.42,0,0,1-1.59,2.51c-3.8,7.8-7.1,15.92-8.72,24.29-2,10.52-1,26.27,8.88,33.7l.07.06a18.65,18.65,0,0,0,4.3,1.4C841.33,459.15,849.09,456.7,850.05,461.37Z" transform="translate(-52.5 -174.02)"/><path class="cls-3" d="M839.31,475.67a34.78,34.78,0,0,1-7.9,7.27,15.69,15.69,0,0,1-3.67,1.59c10.18,3.21,29.86-6.27,30-7a17.61,17.61,0,0,1,.72-2.58c-.85-.49-5.69-3.24-12.58-6.7Z" transform="translate(-52.5 -174.02)"/><path class="cls-18" d="M839.31,475.67a34.78,34.78,0,0,1-7.9,7.27,15.69,15.69,0,0,1-3.67,1.59c10.18,3.21,29.86-6.27,30-7a17.61,17.61,0,0,1,.72-2.58c-.85-.49-5.69-3.24-12.58-6.7Z" transform="translate(-52.5 -174.02)"/><path class="cls-3" d="M823.77,465.91a31.37,31.37,0,0,0-2,9.2,31.58,31.58,0,0,1,2-9.18c.77-2.2,3.7-3.56,6.33-5h0C827.45,462.35,824.54,463.72,823.77,465.91Z" transform="translate(-52.5 -174.02)"/><path class="cls-19" d="M823.77,465.91a31.37,31.37,0,0,0-2,9.2,31.58,31.58,0,0,1,2-9.18c.77-2.2,3.7-3.56,6.33-5h0C827.45,462.35,824.54,463.72,823.77,465.91Z" transform="translate(-52.5 -174.02)"/><path class="cls-20" d="M821.58,367.26a8.13,8.13,0,0,0,3.42,7.52l-3.73.84a1,1,0,0,0-.78.44,1,1,0,0,0,.09.82,12.3,12.3,0,0,0,4.35,5.3c-.67,1.43-3.08,1.12-3.9,2.43a2.85,2.85,0,0,0,0,2.42,13.49,13.49,0,0,0,4.12,5.79c-2.23,2.42-.84,6.91,2.24,8a6.46,6.46,0,0,0,7.84-4.11,6.6,6.6,0,0,1-.92,4c10.17,1.6,21.05,3.1,30.41-1.22a7.82,7.82,0,0,0-.7,3.08,14.61,14.61,0,0,0,7,.44,40.35,40.35,0,0,1-1.32,14.87c-.84,3-2,5.91-2.57,9a12.09,12.09,0,0,0,1.54,9.07c1.61-.14,2.75-1.66,3.37-3.15a16.59,16.59,0,0,1,2-4.39c2.43-2.84,7.47-1.79,9.42,1.35s1.22,7.36-.65,10.52a16,16,0,0,1-10.48,7.28q.5,4.79,1,9.55l.06.59c6.39-6.07,13.54-11.27,19.29-17.9s10.1-15.12,9.36-23.88a38.75,38.75,0,0,0-1.16-6.28,46.58,46.58,0,0,1-1.82-9.67c-.08-2.42.28-4.91.18-7.36A20,20,0,0,0,886.08,375c-3.1-1.05-6.5-1.36-9.25-3.14-3.4-2.21-5.17-6.32-8.56-8.57-3.64-2.43-9.29-3.42-13.52-4.62s-8.57-.08-12.55,1.63c-1.21.52-2.39,1.1-3.52,1.69C833.31,364.83,827.6,368.17,821.58,367.26Z" transform="translate(-52.5 -174.02)"/><path class="cls-3" d="M772.75,496.71c.26-.19.53-.38.77-.58-.25.35-.51.7-.77,1v8.4l.17.24,5.36-4.86a12.25,12.25,0,0,0,2.31-2.51,3.53,3.53,0,0,0,.6-1.83,2.43,2.43,0,0,0-2.62-2.21,2.5,2.5,0,0,0-1.09.38c.16-1.06.57-2,.82-3.07a4.31,4.31,0,0,0-.19-3.08,2.09,2.09,0,0,0-2.67-1,12,12,0,0,0,1.21-4,3.89,3.89,0,0,0-1.78-3.64,3.27,3.27,0,0,1-.9-.57c-.48-.6-.09-1.44.11-2.18a3.52,3.52,0,0,0-1.33-4.12v23.63Z" transform="translate(-52.5 -174.02)"/><path class="cls-21" d="M772.75,496.71c.26-.19.53-.38.77-.58-.25.35-.51.7-.77,1v8.4l.17.24,5.36-4.86a12.25,12.25,0,0,0,2.31-2.51,3.53,3.53,0,0,0,.6-1.83,2.43,2.43,0,0,0-2.62-2.21,2.5,2.5,0,0,0-1.09.38c.16-1.06.57-2,.82-3.07a4.31,4.31,0,0,0-.19-3.08,2.09,2.09,0,0,0-2.67-1,12,12,0,0,0,1.21-4,3.89,3.89,0,0,0-1.78-3.64,3.27,3.27,0,0,1-.9-.57c-.48-.6-.09-1.44.11-2.18a3.52,3.52,0,0,0-1.33-4.12v23.63Z" transform="translate(-52.5 -174.02)"/><path class="cls-3" d="M761.43,480.66h0V477.6h0Z" transform="translate(-52.5 -174.02)"/><path class="cls-22" d="M761.43,480.66h0V477.6h0Z" transform="translate(-52.5 -174.02)"/><path class="cls-3" d="M772.92,505.81l-.17-.24v.4l0,0Z" transform="translate(-52.5 -174.02)"/><path class="cls-23" d="M772.92,505.81l-.17-.24v.4l0,0Z" transform="translate(-52.5 -174.02)"/><path class="cls-24" d="M772.92,505.81l-.17-.24v.4l0,0Z" transform="translate(-52.5 -174.02)"/><path class="cls-8" d="M760.72,479.16a2.43,2.43,0,0,0,.71,1.5v-3.05A3.66,3.66,0,0,0,760.72,479.16Z" transform="translate(-52.5 -174.02)"/><path class="cls-25" d="M760.72,479.16a2.43,2.43,0,0,0,.71,1.5v-3.05A3.66,3.66,0,0,0,760.72,479.16Z" transform="translate(-52.5 -174.02)"/><path class="cls-8" d="M769.11,491.92a16.5,16.5,0,0,0-2.93,3.47,6.8,6.8,0,0,0-.78,1.92,1.69,1.69,0,0,0,1.21,2,1.54,1.54,0,0,0,.85,0,16.68,16.68,0,0,0,5.29-2.62v-8.32Z" transform="translate(-52.5 -174.02)"/><path class="cls-26" d="M769.11,491.92a16.5,16.5,0,0,0-2.93,3.47,6.8,6.8,0,0,0-.78,1.92,1.69,1.69,0,0,0,1.21,2,1.54,1.54,0,0,0,.85,0,16.68,16.68,0,0,0,5.29-2.62v-8.32Z" transform="translate(-52.5 -174.02)"/><path class="cls-27" d="M769.11,491.92a16.5,16.5,0,0,0-2.93,3.47,6.8,6.8,0,0,0-.78,1.92,1.69,1.69,0,0,0,1.21,2,1.54,1.54,0,0,0,.85,0,16.68,16.68,0,0,0,5.29-2.62v-8.32Z" transform="translate(-52.5 -174.02)"/><path class="cls-8" d="M762.67,481.32a7.15,7.15,0,0,0,3.12-.15L772,480a21.07,21.07,0,0,0-8,7.88,2.27,2.27,0,0,0,.11,2.49c.82,1,2.21.63,3.33.19l5.35-2.13V473.08a3.84,3.84,0,0,0-.78-.41h0a3.61,3.61,0,0,0-1.53-.19c-3.12.33-5.73,2.29-8.05,4.25a3.55,3.55,0,0,0-.94.87v3.07A2.38,2.38,0,0,0,762.67,481.32Z" transform="translate(-52.5 -174.02)"/><path class="cls-28" d="M762.67,481.32a7.15,7.15,0,0,0,3.12-.15L772,480a21.07,21.07,0,0,0-8,7.88,2.27,2.27,0,0,0,.11,2.49c.82,1,2.21.63,3.33.19l5.35-2.13V473.08a3.84,3.84,0,0,0-.78-.41h0a3.61,3.61,0,0,0-1.53-.19c-3.12.33-5.73,2.29-8.05,4.25a3.55,3.55,0,0,0-.94.87v3.07A2.38,2.38,0,0,0,762.67,481.32Z" transform="translate(-52.5 -174.02)"/><path class="cls-29" d="M762.67,481.32a7.15,7.15,0,0,0,3.12-.15L772,480a21.07,21.07,0,0,0-8,7.88,2.27,2.27,0,0,0,.11,2.49c.82,1,2.21.63,3.33.19l5.35-2.13V473.08a3.84,3.84,0,0,0-.78-.41h0a3.61,3.61,0,0,0-1.53-.19c-3.12.33-5.73,2.29-8.05,4.25a3.55,3.55,0,0,0-.94.87v3.07A2.38,2.38,0,0,0,762.67,481.32Z" transform="translate(-52.5 -174.02)"/><path class="cls-8" d="M772.75,497.17a40.49,40.49,0,0,1-3.6,4.13,8.7,8.7,0,0,0-2.53,6.07,1.29,1.29,0,0,0,.23.68,1.07,1.07,0,0,0,.67.31c2,.33,3.74-1.09,5.23-2.39v-8.8Z" transform="translate(-52.5 -174.02)"/><path class="cls-30" d="M772.75,497.17a40.49,40.49,0,0,1-3.6,4.13,8.7,8.7,0,0,0-2.53,6.07,1.29,1.29,0,0,0,.23.68,1.07,1.07,0,0,0,.67.31c2,.33,3.74-1.09,5.23-2.39v-8.8Z" transform="translate(-52.5 -174.02)"/><path class="cls-31" d="M772.75,497.17a40.49,40.49,0,0,1-3.6,4.13,8.7,8.7,0,0,0-2.53,6.07,1.29,1.29,0,0,0,.23.68,1.07,1.07,0,0,0,.67.31c2,.33,3.74-1.09,5.23-2.39v-8.8Z" transform="translate(-52.5 -174.02)"/><path class="cls-8" d="M861.89,522.3l-.64.57c-6.21,5.66-11.17,13.79-15.37,22.81-10.48,22.53-16.13,50.66-24.1,60.06-11.17,13.17-33.35-35.49-33.35-35.49l-2.87,5.81c-.14,2-1.6,4.28-2.33,5.91-1.13,2.47-2.34,4.91-3.64,7.34-.41.79-3.11,6.39-4,6.84L772.75,602s5.5,24.1,18.13,41.81c7.34,10.28,17.08,18.4,29.55,18.4,26.06,0,53.51-87.21,66.62-125.28a20.25,20.25,0,0,0,1.16-8.49C887.08,516.69,873.37,512.16,861.89,522.3Z" transform="translate(-52.5 -174.02)"/><path class="cls-3" d="M775.63,596.15l9.93-20.09a3.62,3.62,0,0,0,0-.81c-.35-2.35-1.95-4.52-2.24-7.1a75.18,75.18,0,0,1-.15-8.49,63.93,63.93,0,0,0-10.39-34.57v70.12a6.92,6.92,0,0,0,2.78,1Z" transform="translate(-52.5 -174.02)"/><path class="cls-32" d="M775.63,596.15l9.93-20.09a3.62,3.62,0,0,0,0-.81c-.35-2.35-1.95-4.52-2.24-7.1a75.18,75.18,0,0,1-.15-8.49,63.93,63.93,0,0,0-10.39-34.57v70.12a6.92,6.92,0,0,0,2.78,1Z" transform="translate(-52.5 -174.02)"/><path class="cls-33" d="M775.63,596.15l9.93-20.09a3.62,3.62,0,0,0,0-.81c-.35-2.35-1.95-4.52-2.24-7.1a75.18,75.18,0,0,1-.15-8.49,63.93,63.93,0,0,0-10.39-34.57v70.12a6.92,6.92,0,0,0,2.78,1Z" transform="translate(-52.5 -174.02)"/><path class="cls-8" d="M772.64,524.92a5,5,0,0,0-.86,3.51l.18,32.21a37.42,37.42,0,0,1-.53,8c-.42,1.92-1.12,3.75-1.66,5.64a32.91,32.91,0,0,0-1.22,12.13,14.84,14.84,0,0,0,1.74,6.27,7,7,0,0,0,2.46,2.55V525.09C772.71,525,772.68,525,772.64,524.92Z" transform="translate(-52.5 -174.02)"/><path class="cls-34" d="M772.64,524.92a5,5,0,0,0-.86,3.51l.18,32.21a37.42,37.42,0,0,1-.53,8c-.42,1.92-1.12,3.75-1.66,5.64a32.91,32.91,0,0,0-1.22,12.13,14.84,14.84,0,0,0,1.74,6.27,7,7,0,0,0,2.46,2.55V525.09C772.71,525,772.68,525,772.64,524.92Z" transform="translate(-52.5 -174.02)"/><path class="cls-35" d="M772.64,524.92a5,5,0,0,0-.86,3.51l.18,32.21a37.42,37.42,0,0,1-.53,8c-.42,1.92-1.12,3.75-1.66,5.64a32.91,32.91,0,0,0-1.22,12.13,14.84,14.84,0,0,0,1.74,6.27,7,7,0,0,0,2.46,2.55V525.09C772.71,525,772.68,525,772.64,524.92Z" transform="translate(-52.5 -174.02)"/><path class="cls-8" d="M779.59,589.31c1.3-2.43,2.51-4.87,3.64-7.34.73-1.63,2.19-4,2.33-5.91l-9.93,20.09C776.48,595.7,779.18,590.1,779.59,589.31Z" transform="translate(-52.5 -174.02)"/><path class="cls-36" d="M779.59,589.31c1.3-2.43,2.51-4.87,3.64-7.34.73-1.63,2.19-4,2.33-5.91l-9.93,20.09C776.48,595.7,779.18,590.1,779.59,589.31Z" transform="translate(-52.5 -174.02)"/><path class="cls-2" d="M833.87,457.28l-.07,0,.38.29h0Z" transform="translate(-52.5 -174.02)"/><path class="cls-37" d="M833.87,457.28l-.07,0,.38.29h0Z" transform="translate(-52.5 -174.02)"/><path class="cls-3" d="M821.79,475.11c-.18,5.46,2.25,8.28,5.91,9.43h0C824,483.36,821.62,480.55,821.79,475.11Z" transform="translate(-52.5 -174.02)"/><path class="cls-38" d="M821.79,475.11c-.18,5.46,2.25,8.28,5.91,9.43h0C824,483.36,821.62,480.55,821.79,475.11Z" transform="translate(-52.5 -174.02)"/><path class="cls-2" d="M830.1,460.89c5.8,2.45,11.25,5.05,15.8,7.33l2.19-2.47c1.16-1.25,2.3-2.77,2-4.38-1-4.67-8.72-2.22-11.88-2.69a18.65,18.65,0,0,1-4.3-1.4l.33.25h0C833.43,458.89,831.83,459.91,830.1,460.89Z" transform="translate(-52.5 -174.02)"/><path class="cls-39" d="M830.1,460.89c5.8,2.45,11.25,5.05,15.8,7.33l2.19-2.47c1.16-1.25,2.3-2.77,2-4.38-1-4.67-8.72-2.22-11.88-2.69a18.65,18.65,0,0,1-4.3-1.4l.33.25h0C833.43,458.89,831.83,459.91,830.1,460.89Z" transform="translate(-52.5 -174.02)"/><path class="cls-3" d="M839.31,475.67l6.59-7.45c-4.55-2.28-10-4.88-15.8-7.33-2.63,1.48-5.56,2.84-6.33,5a31.58,31.58,0,0,0-2,9.18c-.17,5.44,2.25,8.25,5.91,9.41h0a15.69,15.69,0,0,0,3.67-1.59A34.78,34.78,0,0,0,839.31,475.67Z" transform="translate(-52.5 -174.02)"/><path class="cls-40" d="M839.31,475.67l6.59-7.45c-4.55-2.28-10-4.88-15.8-7.33-2.63,1.48-5.56,2.84-6.33,5a31.58,31.58,0,0,0-2,9.18c-.17,5.44,2.25,8.25,5.91,9.41h0a15.69,15.69,0,0,0,3.67-1.59A34.78,34.78,0,0,0,839.31,475.67Z" transform="translate(-52.5 -174.02)"/><path class="cls-41" d="M850.05,461.37c-1-4.67-8.72-2.22-11.88-2.69a18.65,18.65,0,0,1-4.3-1.4l.33.25h0c-.77,1.34-2.37,2.36-4.1,3.34-2.63,1.48-5.56,2.84-6.33,5a31.58,31.58,0,0,0-2,9.18c-.17,5.44,2.25,8.25,5.91,9.41h0a15.69,15.69,0,0,0,3.67-1.59,34.78,34.78,0,0,0,7.9-7.27l6.59-7.45,2.19-2.47C849.25,464.5,850.39,463,850.05,461.37Z" transform="translate(-52.5 -174.02)"/><path class="cls-8" d="M544.58,694.07h-.28a3.8,3.8,0,0,0-2.91,1.36L515.05,727a3.78,3.78,0,0,1-5.31.5,3.58,3.58,0,0,1-.75-.85l-7.17-10.91a3.75,3.75,0,0,0-6.34,4v0l12.22,19a3.81,3.81,0,0,0,5.25,1.14,4.3,4.3,0,0,0,.81-.72l33.67-38.81a3.77,3.77,0,0,0-.37-5.33A3.84,3.84,0,0,0,544.58,694.07Z" transform="translate(-52.5 -174.02)"/><path class="cls-8" d="M348.29,815.77h-.05a3.82,3.82,0,0,1-.07-5.39l15.55-15.54a3.84,3.84,0,0,0-5.4-5.45l-15.76,15.55a3.85,3.85,0,0,1-5.38,0l-15.76-15.55a3.83,3.83,0,0,0-5.39,5.45l15.55,15.54a3.81,3.81,0,0,1,0,5.39l-15.4,15.15a3.83,3.83,0,0,0,2.69,6.56h.67a3.8,3.8,0,0,0,2.7-1.12l15-15a3.84,3.84,0,0,1,5.42,0l15,15a3.84,3.84,0,0,0,2.71,1.12H361a3.83,3.83,0,0,0,2.69-6.56Z" transform="translate(-52.5 -174.02)"/><path class="cls-8" d="M214.81,799.22V772.6a13.45,13.45,0,0,1-3.75-.56v18.75c-.25-.28-.49-.55-.78-.84-6.51-6.72-19.41-13.69-26-11.77-2.12,6.56,4.58,19.54,11.08,26.26,5.89,6.09,10.07,5.39,15.73,3.79v6.44h3.76Z" transform="translate(-52.5 -174.02)"/><path class="cls-8" d="M214.81,772.6v42.08h.12v-.48h3.64v-6.45c5.47,1.75,9.66,2.53,15.63-3.26,6.72-6.51,13.7-19.41,11.78-26.07-6.56-2.14-19.55,4.58-26.27,11.08l-1.14,1.21V772A13.17,13.17,0,0,1,214.81,772.6Z" transform="translate(-52.5 -174.02)"/><path class="cls-42" d="M214.81,772.6v42.08h.12v-.48h3.64v-6.45c5.47,1.75,9.66,2.53,15.63-3.26,6.72-6.51,13.7-19.41,11.78-26.07-6.56-2.14-19.55,4.58-26.27,11.08l-1.14,1.21V772A13.17,13.17,0,0,1,214.81,772.6Z" transform="translate(-52.5 -174.02)"/><polygon class="cls-13" points="162.6 581.13 162.31 580.11 162.31 580.12 162.6 581.13 162.6 581.13"/><path class="cls-13" d="M214.81,772.56V755.35h0a7.31,7.31,0,0,1-1.21.7c-5.7-3.3-10.34-13.47-10.42-22.52-6.68-4.7-15.18-8.26-20.14-6.82-1.17,3.6.34,9.14,3,14.52A48.46,48.46,0,0,0,194.13,753a19.31,19.31,0,0,0,4.47,3.56c1.58,7.71,6.38,13.73,12.45,15.52a13.45,13.45,0,0,0,3.75.56Z" transform="translate(-52.5 -174.02)"/><path class="cls-13" d="M244.82,727c-5-1.64-13.94,2-20.82,6.69V733c.35-9.36-3.54-23.49-9.5-26.94-6.21,3-10.92,16.83-11.31,26.18,0,.42,0,.85,0,1.28.08,9.05,4.72,19.22,10.42,22.52a7.31,7.31,0,0,0,1.21-.7v-1.2h0l.29,1h0l-.29.2V772.6a13.17,13.17,0,0,0,3.76-.57c6.58-1.94,11.7-8.85,12.79-17.51.54-.44,1.08-.93,1.64-1.47a37.45,37.45,0,0,0,2.81-3.1C241.49,743,246.44,732.71,244.82,727Z" transform="translate(-52.5 -174.02)"/><path class="cls-43" d="M244.82,727c-5-1.64-13.94,2-20.82,6.69V733c.35-9.36-3.54-23.49-9.5-26.94-6.21,3-10.92,16.83-11.31,26.18,0,.42,0,.85,0,1.28.08,9.05,4.72,19.22,10.42,22.52a7.31,7.31,0,0,0,1.21-.7v-1.2h0l.29,1h0l-.29.2V772.6a13.17,13.17,0,0,0,3.76-.57c6.58-1.94,11.7-8.85,12.79-17.51.54-.44,1.08-.93,1.64-1.47a37.45,37.45,0,0,0,2.81-3.1C241.49,743,246.44,732.71,244.82,727Z" transform="translate(-52.5 -174.02)"/><polygon class="cls-8" points="162.31 581.33 162.6 581.13 162.6 581.13 162.31 580.12 162.31 581.32 162.31 581.33 162.31 581.33"/><path class="cls-8" d="M214.93,833.32V814.68h-3.88l-33.14-.07h-.35a3.77,3.77,0,0,0-3.74,3.81v10.7a4.22,4.22,0,0,0,4.21,4.21h36.9Z" transform="translate(-52.5 -174.02)"/><path class="cls-44" d="M214.93,833.32V814.68h-3.88l-33.14-.07h-.35a3.77,3.77,0,0,0-3.74,3.81v10.7a4.22,4.22,0,0,0,4.21,4.21h36.9Z" transform="translate(-52.5 -174.02)"/><path class="cls-8" d="M214.93,814.2v19.12H215V814.69h36.91a4.2,4.2,0,0,1,4.14,4.21v-.49a4.21,4.21,0,0,0-4.2-4.21H214.93Z" transform="translate(-52.5 -174.02)"/><polygon class="cls-45" points="129.76 659.3 135.06 702.09 129.76 659.3 129.76 659.3"/><polygon class="cls-8" points="162.44 659.3 162.43 659.3 129.76 659.3 135.06 702.09 162.43 702.09 162.44 702.09 162.44 659.3"/><polygon class="cls-46" points="162.44 659.3 162.43 659.3 129.76 659.3 135.06 702.09 162.43 702.09 162.44 702.09 162.44 659.3"/><polygon class="cls-47" points="189.81 702.09 195.05 659.78 195.04 659.78 189.81 702.09"/><polygon class="cls-8" points="162.5 659.78 162.5 659.3 162.44 659.3 162.44 702.09 189.81 702.09 195.04 659.78 162.5 659.78"/><polygon class="cls-48" points="162.5 659.78 162.5 659.3 162.44 659.3 162.44 702.09 189.81 702.09 195.04 659.78 162.5 659.78"/><path class="cls-49" d="M251.85,833.32h-4.24l-.06.48h4.3a4.2,4.2,0,0,0,4.2-4.21v-.48A4.21,4.21,0,0,1,251.85,833.32Z" transform="translate(-52.5 -174.02)"/><path class="cls-8" d="M251.91,814.69H215v18.63h36.85a4.21,4.21,0,0,0,4.2-4.21V818.9A4.2,4.2,0,0,0,251.91,814.69Z" transform="translate(-52.5 -174.02)"/><path class="cls-50" d="M251.91,814.69H215v18.63h36.85a4.21,4.21,0,0,0,4.2-4.21V818.9A4.2,4.2,0,0,0,251.91,814.69Z" transform="translate(-52.5 -174.02)"/><polygon class="cls-51" points="195.1 659.3 195.04 659.78 195.05 659.78 195.11 659.3 195.1 659.3"/><polygon class="cls-52" points="195.1 659.3 195.04 659.78 195.05 659.78 195.11 659.3 195.1 659.3"/><polygon class="cls-8" points="195.04 659.78 195.1 659.3 162.5 659.3 162.5 659.78 195.04 659.78"/><polygon class="cls-53" points="195.04 659.78 195.1 659.3 162.5 659.3 162.5 659.78 195.04 659.78"/><polygon class="cls-54" points="195.04 659.78 195.1 659.3 162.5 659.3 162.5 659.78 195.04 659.78"/><path class="cls-55" d="M908.33,889.51l-101.4-12.75h-.58l-36.94,0h-8l-426.09-.42-70.61-.07-73.09-.07a5.27,5.27,0,0,0-.89,0l-69.56,13.34a4.27,4.27,0,1,0,.08,8.54,4,4,0,0,0,.6,0H907.73a4.26,4.26,0,0,0,.6-8.49Z" transform="translate(-52.5 -174.02)"/></svg>